<?xml version="1.0" encoding="iso-8859-1"?>
<!-- Generator: Adobe Illustrator 19.0.0, SVG Export Plug-In . SVG Version: 6.00 Build 0)  -->
<svg version="1.1" id="Layer_1" xmlns="http://www.w3.org/2000/svg" xmlns:xlink="http://www.w3.org/1999/xlink" x="0px" y="0px"
	 viewBox="0 0 496.008 496.008" style="enable-background:new 0 0 496.008 496.008;" xml:space="preserve">
<g>
	<path style="fill:#333333;" d="M224.004,123.288V160h16v-32.552c2.624,0.328,5.288,0.552,8,0.552c2.712,0,5.376-0.232,8-0.56V160
		h16v-36.72c20.424-8.296,35.648-26.808,39.208-49.184c13.464,4.192,39.136,15.312,49.36,40.88L362.58,120h22.744l-1.416-9.216
		c-0.032-0.224-0.824-4.872-2.976-12.096c14.544,12.976,27.288,28.032,37.472,44.56l13.624-8.392
		c-16.12-26.168-38.104-48.984-63.608-66.152c-5.536-10.152-12.936-20.904-22.728-30.848c48.048,22.424,88.2,60.936,111.76,110.24
		l14.44-6.896C432.66,59.088,350.428,4.928,260.124,0.44C256.196,0.176,252.18,0,248.004,0c-35.288,0-64,28.712-64,64
		C184.004,90.8,200.58,113.768,224.004,123.288z M248.004,16c66.776,0,97.104,38.752,110.392,67.36
		c-21.776-21.76-51.448-26.984-53.08-27.248l-9.32-1.552v9.448c0,26.472-21.528,48-48,48s-48-21.528-48-48S221.54,16,248.004,16z"/>
	<path style="fill:#333333;" d="M64.004,312c26.8,0,49.768-16.576,59.288-40h36.712v-16h-32.552c0.328-2.624,0.552-5.288,0.552-8
		s-0.232-5.376-0.56-8h32.56v-16h-36.72c-8.296-20.424-26.808-35.648-49.184-39.208c4.192-13.464,15.312-39.136,40.88-49.36
		l5.024-2.008V110.68l-9.216,1.416c-0.224,0.032-4.88,0.824-12.096,2.976c12.976-14.544,28.032-27.288,44.56-37.472l-8.392-13.624
		c-26.16,16.12-48.984,38.104-66.152,63.616c-10.144,5.536-20.904,12.936-30.84,22.728c22.424-48.048,60.936-88.2,110.24-111.76
		l-6.896-14.448C59.1,63.344,4.94,145.576,0.444,235.88c-0.264,3.928-0.44,7.944-0.44,12.12C0.004,283.288,28.716,312,64.004,312z
		 M83.364,137.6c-21.76,21.776-26.984,51.448-27.248,53.08L54.564,200h9.448c26.472,0,48,21.528,48,48s-21.528,48-48,48
		s-48-21.528-48-48C16.004,181.224,54.756,150.896,83.364,137.6z"/>
	<path style="fill:#333333;" d="M272.004,372.712V336h-16v32.552c-2.624-0.328-5.288-0.552-8-0.552s-5.376,0.232-8,0.56V336h-16
		v36.72c-20.424,8.296-35.648,26.808-39.208,49.184c-13.464-4.192-39.136-15.312-49.36-40.88L133.428,376h-22.744l1.416,9.216
		c0.032,0.224,0.824,4.88,2.976,12.104c-14.544-12.976-27.296-28.032-37.472-44.56l-13.624,8.392
		c16.12,26.168,38.104,48.992,63.616,66.16c5.536,10.144,12.936,20.896,22.728,30.84c-48.048-22.424-88.2-60.936-111.76-110.24
		l-14.44,6.896c39.24,82.104,121.472,136.272,211.768,140.76c3.928,0.264,7.944,0.44,12.12,0.44c35.288,0,64-28.712,64-64
		C312.004,405.2,295.428,382.224,272.004,372.712z M248.004,480c-66.776,0-97.104-38.752-110.392-67.36
		c21.776,21.76,51.448,26.984,53.08,27.248l9.32,1.552v-9.448c0-26.472,21.528-48,48-48s48,21.528,48,48S274.476,480,248.004,480z"
		/>
	<path style="fill:#333333;" d="M496.004,248c0-35.288-28.712-64-64-64c-26.8,0-49.768,16.576-59.288,40h-36.712v16h32.552
		c-0.328,2.624-0.552,5.288-0.552,8s0.232,5.376,0.56,8h-32.56v16h36.72c8.296,20.424,26.808,35.648,49.184,39.208
		c-4.192,13.464-15.312,39.136-40.88,49.36l-5.024,2.008v22.744l9.216-1.416c0.224-0.032,4.872-0.824,12.096-2.976
		c-12.984,14.544-28.032,27.296-44.56,37.472l8.392,13.624c26.16-16.12,48.992-38.104,66.152-63.608
		c10.152-5.536,20.904-12.936,30.848-22.728c-22.424,48.048-60.936,88.2-110.24,111.76l6.896,14.44
		c82.112-39.24,136.272-121.464,140.76-211.768C495.836,256.192,496.004,252.176,496.004,248z M412.644,358.392
		c21.76-21.776,26.984-51.448,27.248-53.08l1.552-9.32h-9.448c-26.472,0-48-21.528-48-48s21.528-48,48-48s48,21.528,48,48
		C480.004,314.768,441.26,345.096,412.644,358.392z"/>
	<path style="fill:#333333;" d="M317.604,469.384l4.8,15.264c5.536-1.736,11.112-3.712,16.584-5.872l-5.864-14.88
		C328.004,465.904,322.78,467.752,317.604,469.384z"/>
	<path style="fill:#333333;" d="M324.932,432.672l6.16,14.768c5.664-2.36,11.288-5,16.72-7.832l-7.408-14.184
		C335.372,428.048,330.164,430.488,324.932,432.672z"/>
	<path style="fill:#333333;" d="M469.388,178.4l15.264-4.8c-1.752-5.584-3.728-11.168-5.872-16.584l-14.88,5.872
		C465.9,167.952,467.748,173.176,469.388,178.4z"/>
	<path style="fill:#333333;" d="M432.684,171.072l14.768-6.16c-2.344-5.624-4.976-11.248-7.832-16.712l-14.184,7.4
		C428.076,160.664,430.508,165.872,432.684,171.072z"/>
	<path style="fill:#333333;" d="M178.404,26.616l-4.8-15.264c-5.584,1.752-11.168,3.728-16.584,5.872l5.872,14.88
		C167.956,30.104,173.18,28.256,178.404,26.616z"/>
	<path style="fill:#333333;" d="M171.076,63.328l-6.152-14.776c-5.616,2.336-11.24,4.976-16.72,7.832l7.4,14.184
		C160.684,67.928,165.884,65.488,171.076,63.328z"/>
	<path style="fill:#333333;" d="M26.628,317.6l-15.264,4.8c1.752,5.568,3.72,11.152,5.864,16.584l14.88-5.864
		C30.108,328.032,28.268,322.816,26.628,317.6z"/>
	<path style="fill:#333333;" d="M48.564,331.08c2.36,5.664,5,11.288,7.832,16.72l14.184-7.408
		c-2.624-5.024-5.064-10.232-7.248-15.472L48.564,331.08z"/>
</g>
<circle style="fill:#FFA64D;" cx="248.012" cy="248.04" r="95.912"/>
<path style="fill:#333333;" d="M248.004,312.04c-35.288,0-64-28.712-64-64s28.712-64,64-64s64,28.712,64,64
	S283.292,312.04,248.004,312.04z M248.004,200.04c-26.472,0-48,21.528-48,48s21.528,48,48,48s48-21.528,48-48
	S274.476,200.04,248.004,200.04z"/>
<g>
</g>
<g>
</g>
<g>
</g>
<g>
</g>
<g>
</g>
<g>
</g>
<g>
</g>
<g>
</g>
<g>
</g>
<g>
</g>
<g>
</g>
<g>
</g>
<g>
</g>
<g>
</g>
<g>
</g>
</svg>
